<?xml version="1.0" encoding="UTF-8"?>
<!DOCTYPE svg PUBLIC "-//W3C//DTD SVG 1.1//EN" "http://www.w3.org/Graphics/SVG/1.1/DTD/svg11.dtd">
<!-- Creator: CorelDRAW X7 -->
<svg xmlns="http://www.w3.org/2000/svg" xml:space="preserve" width="88.9mm" height="76.2mm" version="1.1" style="shape-rendering:geometricPrecision; text-rendering:geometricPrecision; image-rendering:optimizeQuality; fill-rule:evenodd; clip-rule:evenodd"
viewBox="0 0 8890 7620"
 xmlns:xlink="http://www.w3.org/1999/xlink">
 <defs>
  <style type="text/css">
   <![CDATA[
    .fil0 {fill:#613301;fill-rule:nonzero}
    .fil2 {fill:#623106;fill-rule:nonzero}
    .fil1 {fill:#633303;fill-rule:nonzero}
   ]]>
  </style>
 </defs>
 <g id="Capa_x0020_1">
  <metadata id="CorelCorpID_0Corel-Layer"/>
  <path class="fil0" d="M2369 3968c-52,-50 -119,-77 -193,-77 -75,0 -141,29 -191,83 -48,51 -79,129 -79,198l0 92c0,152 137,289 289,289 72,0 140,-28 195,-80 29,-28 42,-46 42,-57 0,-12 -9,-21 -22,-21 -8,0 -13,2 -20,11 -61,72 -117,101 -195,101 -132,0 -244,-114 -244,-249l0 -80c0,-134 101,-241 225,-241 100,0 189,59 193,127 2,18 9,27 23,27 15,0 23,-10 23,-30l0 -125c0,-22 -6,-30 -22,-30 -16,0 -24,10 -24,30l0 32z"/>
  <path id="1" class="fil0" d="M2845 4053c-146,0 -259,110 -259,250 0,139 113,250 255,250 142,0 255,-111 255,-251 0,-137 -113,-249 -251,-249zm-6 46c120,0 211,88 211,204 0,113 -93,204 -209,204 -116,0 -209,-91 -209,-205 0,-111 93,-203 207,-203z"/>
  <path id="2" class="fil0" d="M3363 4069l-84 0c-21,0 -30,6 -30,22 0,16 10,24 30,24l38 0 0 374 -51 0c-20,0 -30,8 -30,22 0,16 10,24 30,24l147 0c21,0 31,-8 31,-24 0,-14 -10,-22 -31,-22l-50 0 0 -283c37,-46 47,-58 64,-70 31,-26 62,-37 106,-37 44,0 64,7 92,29 28,22 42,51 42,85l0 276 -38 0c-20,0 -30,8 -30,22 0,16 10,24 30,24l122 0c20,0 30,-8 30,-24 0,-14 -10,-22 -30,-22l-38 0 0 -284c0,-86 -76,-152 -176,-152 -69,0 -109,21 -174,93l0 -77z"/>
  <path id="3" class="fil0" d="M4150 4115l211 0c20,0 30,-8 30,-24 0,-16 -9,-22 -30,-22l-211 0 0 -68c0,-57 50,-94 124,-94 39,0 77,3 140,12 9,1 11,1 14,1 14,0 24,-9 24,-22 0,-11 -7,-19 -19,-23 -38,-7 -113,-14 -158,-14 -99,0 -171,59 -171,140l0 68 -98 0c-20,0 -30,8 -30,22 0,16 10,24 30,24l98 0 0 374 -109 0c-21,0 -31,8 -31,22 0,16 10,24 31,24l354 0c20,0 30,-8 30,-24 0,-14 -10,-22 -30,-22l-199 0 0 -374z"/>
  <path id="4" class="fil0" d="M4875 4069l-177 0c-21,0 -31,8 -31,22 0,16 10,24 31,24l131 0 0 374 -178 0c-20,0 -31,8 -31,22 0,16 11,24 31,24l403 0c21,0 31,-8 31,-24 0,-14 -10,-22 -31,-22l-179 0 0 -420zm-2 -232l-66 0 0 117 66 0 0 -117z"/>
  <path id="5" class="fil0" d="M5396 4069l0 -133c0,-22 -7,-30 -22,-30 -16,0 -24,10 -24,30l0 133 -82 0c-22,0 -32,6 -32,22 0,16 10,24 32,24l82 0 0 300c0,84 68,138 174,138 96,0 222,-43 222,-75 0,-13 -10,-23 -21,-23 -6,0 -9,2 -18,7 -42,25 -123,45 -185,45 -78,0 -126,-36 -126,-94l0 -298 246 0c20,0 30,-8 30,-24 0,-16 -10,-22 -30,-22l-246 0z"/>
  <path id="6" class="fil0" d="M6440 4312c0,-51 -3,-72 -19,-109 -40,-94 -128,-150 -237,-150 -144,0 -255,104 -255,239 0,147 119,261 272,261 61,0 126,-16 181,-44 37,-18 54,-33 54,-48 0,-12 -10,-22 -22,-22 -6,0 -10,1 -18,7 -44,35 -126,61 -195,61 -121,0 -210,-77 -226,-195l465 0zm-465 -45c20,-103 101,-168 209,-168 110,0 191,66 209,168l-418 0z"/>
  <path id="7" class="fil0" d="M6808 4069l-130 0c-19,0 -30,8 -30,22 0,16 11,24 30,24l84 0 0 374 -107 0c-20,0 -32,8 -32,22 0,16 12,24 32,24l353 0c19,0 30,-8 30,-24 0,-14 -11,-22 -30,-22l-200 0 0 -247c123,-113 162,-139 211,-139 25,0 48,13 74,38 8,8 10,9 18,9 13,0 23,-10 23,-23 0,-10 -7,-19 -26,-35 -29,-24 -53,-34 -86,-34 -57,0 -110,31 -214,125l0 -114z"/>
  <path id="8" class="fil0" d="M7558 4069l-178 0c-20,0 -30,8 -30,22 0,16 10,24 30,24l132 0 0 374 -179 0c-20,0 -30,8 -30,22 0,16 10,24 30,24l404 0c21,0 31,-8 31,-24 0,-14 -10,-22 -31,-22l-179 0 0 -420zm-3 -232l-65 0 0 117 65 0 0 -117z"/>
  <path id="9" class="fil0" d="M8339 4535l106 0c20,0 30,-8 30,-24 0,-14 -10,-22 -30,-22l-60 0 0 -298c0,-80 -76,-138 -180,-138 -43,0 -113,15 -176,36 -13,4 -19,12 -19,23 0,13 9,23 22,23 2,0 6,-1 11,-3 88,-26 118,-33 158,-33 82,0 138,37 138,92l0 79c-64,-18 -101,-24 -152,-24 -141,0 -236,66 -236,164 0,86 71,143 174,143 80,0 145,-28 214,-93l0 75zm0 -125c-76,70 -134,97 -215,97 -77,0 -127,-38 -127,-96 0,-71 80,-119 199,-119 50,0 102,7 143,17l0 101z"/>
  <polygon class="fil1" points="233,4258 233,4210 679,4210 679,4258 "/>
  <polygon id="1" class="fil1" points="659,4258 659,4210 1105,4210 1105,4258 "/>
  <polygon id="2" class="fil1" points="1085,4258 1085,4210 1532,4210 1532,4258 "/>
  <path class="fil2" d="M643 2679l154 595 215 0 389 -595 -144 685 -83 0c-76,0 -95,5 -131,36 -33,28 -54,69 -54,107 0,68 38,94 135,94l306 0c66,0 97,-9 130,-35 33,-29 55,-69 55,-109 0,-64 -38,-93 -121,-93l192 -908c90,-9 152,-66 152,-145 0,-37 -22,-73 -53,-83 -18,-7 -35,-9 -82,-9l-259 0 -472 704 -178 -704 -256 0c-73,0 -97,5 -130,33 -33,31 -55,71 -55,109 0,60 31,88 100,95l-192 908c-60,0 -86,7 -119,36 -33,28 -54,69 -54,107 0,68 38,94 135,94l306 0c66,0 97,-9 130,-35 33,-29 55,-69 55,-109 0,-38 -22,-74 -53,-83 -18,-7 -33,-10 -80,-10l-83 0 145 -685z"/>
  <path id="1" class="fil2" d="M2454 3601l278 0c68,0 99,-7 130,-35 33,-29 55,-69 55,-107 0,-38 -22,-76 -53,-85 -19,-7 -33,-10 -80,-10l-40 0 101 -479c8,-28 10,-52 10,-83 0,-166 -152,-268 -398,-268 -131,0 -361,41 -446,79 -48,21 -76,66 -76,121 0,54 38,92 90,92 24,0 59,-5 100,-14 113,-29 206,-40 287,-40 137,0 196,28 196,92 0,12 0,14 -2,24l-12 54c-92,-16 -163,-23 -239,-23 -245,0 -446,83 -572,232 -62,73 -95,149 -95,218 0,157 154,270 365,270 140,0 290,-33 413,-92l-12 54zm71 -320c-154,83 -287,121 -419,121 -90,0 -159,-35 -159,-80 0,-29 19,-57 57,-90 76,-62 173,-95 289,-95 81,0 164,9 256,26l-24 118z"/>
  <path id="2" class="fil2" d="M3837 2565l-320 0c-76,0 -93,5 -128,33 -34,29 -55,69 -55,107 0,69 38,95 133,95l83 0 -119 564 -140 0c-73,0 -95,5 -128,36 -33,28 -54,69 -54,107 0,68 38,94 133,94l706 0c67,0 97,-9 131,-35 33,-29 54,-69 54,-107 0,-38 -21,-76 -52,-85 -19,-7 -36,-10 -83,-10l-330 0 74 -351c254,-177 367,-241 441,-241 36,0 57,11 85,42 29,33 50,43 83,43 74,0 147,-71 147,-145 0,-85 -130,-175 -256,-175 -123,0 -208,35 -436,180l31 -152z"/>
  <path id="3" class="fil2" d="M5257 2802l358 0c69,0 97,-7 131,-35 33,-29 54,-69 54,-107 0,-40 -21,-76 -52,-85 -19,-7 -36,-10 -83,-10l-356 0 17 -88c19,-78 90,-116 225,-116 76,0 178,10 263,26 29,5 50,7 64,7 72,0 140,-71 140,-144 0,-45 -26,-74 -78,-88 -73,-21 -216,-38 -315,-38 -285,0 -489,135 -536,353l-19 88 -109 0c-76,0 -95,5 -131,33 -33,29 -54,72 -54,109 0,69 38,95 135,95l109 0 -119 562 -137 0c-76,0 -95,5 -131,36 -33,28 -54,69 -54,107 0,68 38,94 133,94l706 0c67,0 98,-9 131,-35 33,-29 54,-69 54,-109 0,-36 -21,-74 -52,-83 -19,-7 -35,-10 -83,-10l-329 0 118 -562z"/>
  <path id="4" class="fil2" d="M7195 3194l19 -93c7,-38 11,-76 11,-114 0,-277 -196,-453 -505,-453 -396,0 -742,313 -742,667 0,272 199,438 522,438 189,0 462,-49 566,-104 50,-26 79,-69 79,-121 0,-54 -36,-90 -90,-90 -24,0 -53,5 -83,12 -228,57 -292,66 -399,66 -211,0 -322,-66 -348,-208l970 0zm-918 -209c66,-131 220,-213 396,-213 173,0 292,85 303,213l-699 0z"/>
  <path id="5" class="fil2" d="M7908 2565l-223 0c-73,0 -94,7 -130,36 -33,28 -55,69 -55,106 0,65 41,95 121,95l-118 562 -14 0c-74,0 -98,7 -131,36 -33,28 -54,69 -54,107 0,68 38,94 132,94l266 0c69,0 97,-7 130,-35 34,-29 55,-69 55,-107 0,-38 -21,-76 -52,-85 -19,-7 -33,-10 -81,-10l-14 0 90 -431c138,-121 221,-161 330,-161 121,0 185,40 185,116 0,16 -3,35 -7,54l-88 422c-59,0 -86,7 -119,36 -33,28 -54,69 -54,107 0,68 38,94 135,94l211 0c66,0 97,-7 130,-35 34,-29 55,-69 55,-107 0,-64 -40,-95 -123,-95l92 -431c7,-38 12,-71 12,-109 0,-173 -140,-290 -349,-290 -132,0 -218,36 -355,145l23 -114z"/>
 </g>
</svg>
